<?xml version="1.0" encoding="UTF-8"?>
<svg xmlns="http://www.w3.org/2000/svg" xmlns:xlink="http://www.w3.org/1999/xlink" width="80px" height="81px" viewBox="0 0 80 80" version="1.1">
<g id="surface1">
<path style=" stroke:none;fill-rule:nonzero;fill:rgb(0%,0%,0%);fill-opacity:1;" d="M 19.882812 42.570312 L 19.417969 56.054688 L 14.25 52.59375 L 9.085938 55.460938 L 10.152344 41.007812 L 2.835938 40.019531 L 2.835938 70.320312 L 29.777344 73.332031 L 29.777344 43.648438 Z M 64.730469 3.902344 C 65.007812 3.851562 65.292969 3.902344 65.53125 4.046875 C 65.933594 4.210938 66.21875 4.601562 66.226562 5.058594 L 66.457031 36.277344 L 78.285156 37.804688 C 78.5625 37.757812 78.847656 37.804688 79.085938 37.949219 C 79.492188 38.113281 79.777344 38.503906 79.78125 38.964844 L 80.011719 70.964844 C 80.03125 71.355469 79.835938 71.742188 79.46875 71.960938 L 66.1875 79.753906 C 66 79.890625 65.765625 79.976562 65.511719 79.976562 C 65.453125 79.976562 65.386719 79.96875 65.335938 79.960938 L 30.863281 76.1875 C 30.777344 76.179688 30.695312 76.167969 30.617188 76.148438 L 1.078125 72.414062 C 0.484375 72.390625 0.0117188 71.898438 0.0117188 71.316406 L 0.0117188 38.773438 C 0 38.335938 0.253906 37.914062 0.683594 37.730469 L 16.234375 30.996094 L 16.234375 8.644531 C 16.222656 8.210938 16.472656 7.789062 16.902344 7.601562 L 34.195312 0.125 C 34.371094 0.046875 34.578125 0.0117188 34.789062 0.0390625 Z M 65.386719 38.359375 L 54.992188 44.460938 L 65.3125 45.757812 L 75.199219 39.628906 Z M 16.234375 36.226562 L 16.234375 33.402344 L 5.207031 38.171875 L 11.53125 38.964844 Z M 53.074219 14.234375 L 53.074219 43.023438 L 63 37.195312 L 64.207031 36.1875 L 63.996094 7.460938 Z M 50.230469 43.734375 L 50.230469 13.953125 L 36.125 12.105469 L 35.640625 25.929688 L 30.476562 22.46875 L 25.3125 25.335938 L 26.378906 10.882812 L 18.46875 9.886719 L 18.46875 40.1875 Z M 48.503906 4.035156 L 37.65625 10.089844 L 51.765625 11.859375 L 61.652344 5.730469 Z M 27.765625 8.839844 L 38.28125 2.707031 L 34.816406 2.257812 L 21.4375 8.039062 Z M 66.621094 48.132812 L 66.621094 76.921875 L 77.765625 70.382812 L 77.546875 41.359375 Z M 63.777344 77.632812 L 63.777344 47.851562 L 49.675781 46.003906 L 49.191406 59.828125 L 44.027344 56.367188 L 38.863281 59.234375 L 39.925781 44.78125 L 32.613281 44.078125 L 32.613281 74.378906 Z M 63.777344 77.632812 "/>
</g>
</svg>
