<?xml version="1.0" encoding="UTF-8"?>
<svg xmlns="http://www.w3.org/2000/svg" xmlns:xlink="http://www.w3.org/1999/xlink" width="100px" height="55px" viewBox="0 0 99 55" version="1.1">
<g id="surface1">
<path style=" stroke:none;fill-rule:evenodd;fill:rgb(0%,0%,0%);fill-opacity:1;" d="M 2.613281 13.671875 L 4.460938 36.722656 C 4.710938 39.101562 5.269531 40.632812 5.945312 41.476562 C 6.519531 42.121094 7.410156 42.390625 8.242188 42.160156 L 17.546875 42.160156 C 18.558594 42.265625 19.550781 41.867188 20.214844 41.09375 L 20.253906 41.046875 C 20.925781 39.925781 21.253906 38.632812 21.203125 37.328125 L 21.203125 11.882812 C 21.167969 11.769531 21.144531 11.652344 21.148438 11.535156 C 21.144531 11.503906 21.144531 11.46875 21.148438 11.4375 C 21.078125 10.75 20.707031 10.128906 20.144531 9.738281 C 19.179688 9.234375 18.097656 9.015625 17.015625 9.105469 L 5.640625 9.105469 C 4.691406 9.054688 3.761719 9.394531 3.070312 10.054688 C 2.527344 10.699219 2.335938 11.820312 2.601562 13.558594 L 2.601562 13.671875 Z M 75.007812 12.691406 C 75.003906 12.304688 75.03125 11.917969 75.082031 11.535156 L 70.898438 8.707031 C 70.296875 8.304688 69.632812 7.835938 68.964844 7.363281 C 66.546875 5.683594 64.132812 3.949219 61.445312 3.242188 C 59.882812 2.839844 58.277344 2.617188 56.660156 2.582031 C 55.183594 2.542969 53.703125 2.703125 52.265625 3.066406 C 51.425781 3.28125 50.613281 3.589844 49.84375 3.988281 C 49.171875 4.347656 48.542969 4.792969 47.984375 5.316406 L 45.117188 8.691406 C 45.03125 8.859375 44.910156 9 44.761719 9.113281 L 36.972656 18.433594 C 37.074219 18.980469 37.304688 19.492188 37.648438 19.929688 C 38.023438 20.394531 38.523438 20.746094 39.082031 20.949219 C 39.730469 21.183594 40.425781 21.269531 41.113281 21.203125 C 42.421875 21.074219 43.660156 20.558594 44.671875 19.71875 L 46.84375 17.898438 C 47.386719 17.445312 47.847656 17.023438 48.296875 16.609375 C 49.230469 15.703125 50.253906 14.886719 51.347656 14.183594 C 53.761719 12.726562 56.179688 12.675781 58.59375 16.707031 L 70.839844 38.949219 L 75.007812 38.949219 Z M 75.996094 9.136719 C 76.1875 8.875 76.402344 8.628906 76.640625 8.410156 C 77.933594 7.375 79.5625 6.863281 81.210938 6.96875 L 91.84375 6.96875 C 94.078125 6.96875 95.875 7.363281 97.144531 8.335938 C 98.542969 9.421875 99.199219 11.066406 98.921875 13.429688 L 96.566406 37.886719 C 96.527344 39.726562 95.90625 41.503906 94.796875 42.964844 C 93.636719 44.265625 91.929688 44.933594 90.203125 44.761719 L 80.636719 44.761719 C 79.402344 44.859375 78.175781 44.480469 77.207031 43.703125 C 76.46875 43.082031 75.875 42.304688 75.476562 41.425781 L 72.164062 41.425781 C 72.582031 42.605469 72.605469 43.890625 72.230469 45.082031 C 71.855469 46.203125 71.164062 47.191406 70.238281 47.917969 C 69.332031 48.636719 68.257812 49.113281 67.117188 49.304688 C 65.988281 49.496094 64.824219 49.363281 63.757812 48.929688 C 62.699219 50.125 61.328125 51 59.804688 51.464844 C 58.414062 51.84375 56.941406 51.777344 55.589844 51.269531 C 54.433594 52.664062 52.863281 53.644531 51.109375 54.070312 C 49.292969 54.410156 47.414062 54.125 45.777344 53.261719 C 45.214844 53.707031 44.59375 54.074219 43.933594 54.355469 C 43.027344 54.730469 42.050781 54.910156 41.070312 54.882812 C 39.136719 54.917969 37.253906 54.230469 35.792969 52.949219 C 34.589844 51.746094 33.585938 50.355469 32.828125 48.828125 L 27.542969 39.597656 L 23.453125 39.597656 C 23.265625 40.65625 22.851562 41.65625 22.234375 42.535156 L 22.179688 42.617188 C 21.042969 44.023438 19.28125 44.777344 17.480469 44.613281 L 8.550781 44.613281 C 6.890625 44.984375 5.160156 44.394531 4.066406 43.085938 C 3.023438 41.863281 2.296875 39.847656 1.992188 36.957031 L 1.992188 36.851562 L 0.136719 13.890625 C -0.234375 11.414062 0.136719 9.65625 1.167969 8.460938 C 2.292969 7.238281 3.882812 6.566406 5.535156 6.609375 L 17 6.609375 C 18.5625 6.511719 20.121094 6.867188 21.484375 7.640625 C 22.4375 8.246094 23.132812 9.183594 23.445312 10.269531 L 31.136719 10.269531 C 32.898438 9.003906 34.832031 8.003906 36.882812 7.300781 C 39.027344 6.652344 41.285156 6.476562 43.507812 6.78125 L 46.140625 3.632812 L 46.234375 3.527344 C 46.960938 2.835938 47.773438 2.25 48.65625 1.777344 C 49.59375 1.292969 50.589844 0.910156 51.613281 0.644531 C 53.269531 0.238281 54.972656 0.0507812 56.675781 0.0859375 C 58.488281 0.125 60.285156 0.378906 62.035156 0.832031 C 65.105469 1.640625 67.753906 3.511719 70.332031 5.324219 C 70.957031 5.761719 71.566406 6.191406 72.230469 6.636719 L 75.976562 9.136719 Z M 12.703125 31.46875 C 13.574219 31.464844 14.359375 31.988281 14.691406 32.792969 C 15.023438 33.597656 14.84375 34.527344 14.230469 35.144531 C 13.613281 35.761719 12.691406 35.945312 11.890625 35.609375 C 11.089844 35.273438 10.566406 34.484375 10.570312 33.613281 C 10.574219 32.429688 11.527344 31.472656 12.703125 31.46875 Z M 69.578125 41.3125 C 69.234375 41.160156 68.972656 40.863281 68.867188 40.5 L 56.445312 17.972656 C 55.066406 15.65625 53.824219 15.589844 52.617188 16.308594 C 51.664062 16.945312 50.769531 17.667969 49.953125 18.472656 C 49.402344 18.972656 48.855469 19.476562 48.40625 19.847656 L 46.207031 21.671875 C 44.800781 22.816406 43.097656 23.523438 41.300781 23.695312 C 40.246094 23.789062 39.183594 23.652344 38.191406 23.292969 C 37.210938 22.925781 36.34375 22.304688 35.683594 21.492188 C 34.929688 20.539062 34.484375 19.378906 34.402344 18.164062 C 34.375 17.796875 34.507812 17.4375 34.761719 17.175781 L 41.476562 9.15625 C 40.160156 9.121094 38.855469 9.304688 37.597656 9.695312 C 35.691406 10.367188 33.890625 11.316406 32.261719 12.515625 C 32.03125 12.699219 31.746094 12.792969 31.453125 12.78125 L 23.695312 12.78125 L 23.695312 37.070312 L 28.261719 37.070312 C 28.730469 37.070312 29.160156 37.332031 29.375 37.75 L 35.011719 47.585938 C 35.640625 48.875 36.457031 50.054688 37.433594 51.097656 C 38.460938 51.972656 39.773438 52.4375 41.121094 52.394531 C 41.753906 52.414062 42.386719 52.296875 42.976562 52.054688 C 43.351562 51.898438 43.703125 51.695312 44.027344 51.449219 L 40.398438 44.613281 C 40.125 44.015625 40.363281 43.308594 40.941406 43 C 41.519531 42.6875 42.234375 42.882812 42.582031 43.441406 L 46.558594 50.914062 C 48.90625 52.417969 52.003906 51.878906 53.703125 49.667969 L 47.976562 40.617188 C 47.605469 40.039062 47.765625 39.265625 48.339844 38.890625 C 48.921875 38.53125 49.683594 38.699219 50.058594 39.273438 L 56.089844 48.800781 C 57.046875 49.226562 58.121094 49.316406 59.136719 49.058594 C 60.207031 48.71875 61.164062 48.09375 61.90625 47.246094 L 56.453125 36.898438 C 56.125 36.289062 56.351562 35.527344 56.960938 35.199219 C 57.566406 34.871094 58.324219 35.101562 58.652344 35.710938 L 64.292969 46.410156 C 65.027344 46.828125 65.882812 46.972656 66.710938 46.816406 C 67.429688 46.703125 68.113281 46.402344 68.683594 45.941406 C 69.222656 45.53125 69.628906 44.96875 69.851562 44.324219 C 70.097656 43.519531 70.03125 42.652344 69.667969 41.894531 C 69.585938 41.714844 69.550781 41.515625 69.566406 41.320312 Z M 85.949219 31.46875 C 87.128906 31.476562 88.082031 32.445312 88.074219 33.632812 C 88.070312 34.824219 87.105469 35.78125 85.921875 35.773438 C 84.738281 35.769531 83.785156 34.800781 83.789062 33.613281 C 83.792969 32.429688 84.746094 31.472656 85.921875 31.46875 Z M 85.949219 31.46875 "/>
</g>
</svg>
