<?xml version="1.0" standalone="no"?>
<!DOCTYPE svg PUBLIC "-//W3C//DTD SVG 20010904//EN"
 "http://www.w3.org/TR/2001/REC-SVG-20010904/DTD/svg10.dtd">
<svg version="1.0" xmlns="http://www.w3.org/2000/svg"
 width="100.000000pt" height="100.000000pt" viewBox="0 0 100.000000 100.000000"
 preserveAspectRatio="xMidYMid meet">
<metadata>
Created by potrace 1.16, written by Peter Selinger 2001-2019
</metadata>
<g transform="translate(0.000000,100.000000) scale(0.022124,-0.025510)"
fill="#000000" stroke="none">
<path d="M3042 3765 c-195 -59 -182 -52 -152 -78 14 -12 38 -31 54 -43 l29
-21 -343 -564 c-188 -310 -348 -569 -354 -576 -8 -9 -61 74 -210 333 -109 190
-202 346 -205 348 -7 4 -601 -725 -615 -755 -6 -13 -1 -41 19 -94 15 -41 30
-75 34 -74 3 0 125 148 271 329 235 292 266 328 278 312 7 -9 103 -173 214
-365 111 -191 204 -344 209 -340 4 4 190 310 414 678 224 369 409 672 411 674
2 2 25 -10 51 -27 l48 -31 3 112 c1 61 -1 137 -5 168 l-8 57 -143 -43z"/>
<path d="M2185 3774 c-282 -30 -517 -143 -703 -338 -208 -220 -318 -517 -298
-811 9 -130 17 -167 34 -156 11 7 12 26 2 107 -46 380 139 772 467 990 172
115 327 164 543 171 223 8 388 -31 564 -133 61 -36 81 -43 87 -32 21 34 -234
151 -398 182 -87 16 -236 26 -298 20z"/>
<path d="M3070 3391 c0 -6 25 -45 56 -88 245 -341 267 -788 57 -1147 -24 -41
-31 -62 -24 -69 15 -15 30 7 85 118 153 306 153 652 1 960 -57 116 -139 235
-162 235 -7 0 -13 -4 -13 -9z"/>
<path d="M2528 2493 c-139 -229 -257 -417 -263 -417 -5 -1 -104 162 -220 362
-115 199 -212 362 -215 362 -3 0 -56 -62 -116 -137 l-111 -138 -72 -415 c-39
-228 -71 -434 -71 -458 0 -52 19 -91 60 -126 26 -21 42 -26 86 -26 88 0 136
35 159 115 8 27 37 198 65 379 27 181 52 331 54 333 2 3 21 -49 41 -114 135
-437 199 -631 217 -655 32 -46 72 -61 149 -56 73 4 105 23 134 78 11 21 73
218 207 648 11 35 22 62 24 59 3 -2 27 -128 54 -278 77 -430 84 -453 143 -489
39 -24 125 -27 167 -5 15 8 38 31 50 51 20 32 22 45 17 117 -7 103 -172 1048
-193 1104 -19 53 -48 89 -84 108 l-28 15 -254 -417z"/>
<path d="M130 1035 l0 -355 70 0 69 0 -5 263 c-2 144 -6 287 -8 317 -6 87 8
39 74 -245 34 -143 65 -277 71 -297 l10 -38 67 0 68 0 72 318 72 317 -3 -315
-2 -315 65 0 65 0 3 353 2 352 -118 0 -118 0 -44 -212 c-24 -117 -49 -244 -55
-283 l-12 -70 -7 45 c-7 43 -102 467 -112 503 -5 15 -19 17 -115 17 l-109 0 0
-355z"/>
<path d="M2380 1063 c0 -181 -3 -338 -6 -350 -6 -22 -4 -23 65 -23 57 0 71 3
71 15 0 12 6 11 31 -7 38 -28 114 -30 153 -5 47 31 60 72 64 198 5 144 -9 222
-48 261 -24 24 -37 28 -82 28 -35 0 -64 -7 -85 -20 l-33 -20 0 125 0 125 -65
0 -65 0 0 -327z m226 16 c17 -19 19 -37 19 -155 0 -123 -2 -135 -22 -155 -27
-27 -65 -20 -81 16 -16 34 -16 249 -1 278 23 43 55 49 85 16z"/>
<path d="M1013 1161 c-59 -28 -84 -81 -90 -191 -12 -214 42 -295 197 -294 96
0 143 21 173 78 19 36 22 57 22 171 0 145 -13 189 -68 229 -41 30 -175 34
-234 7z m154 -88 c26 -40 26 -246 0 -287 -15 -22 -25 -27 -50 -24 -50 5 -58
32 -55 181 3 114 5 130 22 143 31 22 64 17 83 -13z"/>
<path d="M1505 1166 c-42 -18 -83 -69 -92 -114 -4 -20 -8 -82 -7 -137 1 -162
42 -225 155 -240 26 -4 73 -1 105 5 106 22 137 80 137 256 0 88 -3 108 -24
150 -36 72 -65 88 -162 92 -53 1 -93 -3 -112 -12z m141 -87 c15 -17 19 -40 22
-127 2 -71 -1 -120 -10 -147 -12 -36 -17 -40 -51 -43 -35 -3 -39 -1 -52 32
-18 42 -21 220 -4 263 18 48 62 58 95 22z"/>
<path d="M2061 1154 c-30 -25 -31 -25 -31 -5 0 19 -6 21 -67 21 l-68 0 3 -245
3 -245 64 0 65 0 0 183 c0 203 6 230 55 235 51 6 55 -11 55 -225 l0 -194 68 3
67 3 0 200 c0 110 -3 213 -8 228 -18 66 -146 92 -206 41z"/>
<path d="M2945 1166 c-42 -18 -83 -69 -92 -114 -4 -20 -8 -83 -7 -139 1 -121
25 -184 84 -218 49 -28 169 -28 225 1 44 22 85 88 85 136 0 28 -1 28 -63 28
l-63 0 -12 -45 c-9 -34 -18 -46 -36 -51 -58 -14 -86 17 -86 99 l0 47 131 0
131 0 -3 84 c-4 91 -17 119 -73 160 -35 27 -174 34 -221 12z"/>
<path d="M3404 1166 c-38 -17 -74 -61 -74 -92 0 -23 4 -24 58 -24 53 0 60 2
70 25 18 38 55 52 87 31 14 -9 25 -23 25 -30 0 -7 3 -27 6 -43 l6 -30 -72 -6
c-136 -11 -194 -61 -193 -168 1 -70 23 -112 71 -135 45 -21 114 -14 154 16 25
18 32 20 39 9 5 -8 9 -20 9 -26 0 -9 18 -13 58 -13 l57 0 -3 197 c-3 224 -11
255 -72 285 -43 22 -180 24 -226 4z m169 -296 c-3 -65 -27 -103 -67 -108 -35
-4 -54 12 -62 53 -12 64 43 119 111 112 18 -2 20 -8 18 -57z"/>
<path d="M3971 1154 c-30 -25 -31 -25 -31 -5 0 19 -6 21 -71 21 l-71 0 6 -31
c3 -17 6 -128 6 -245 l0 -214 65 0 65 0 0 188 c0 210 6 232 61 232 44 0 49
-26 49 -236 l0 -184 65 0 65 0 0 183 c0 203 6 230 55 235 51 6 55 -11 55 -225
l0 -194 68 3 67 3 3 165 c5 288 -7 321 -119 328 -61 4 -66 2 -99 -28 -33 -31
-34 -31 -49 -12 -24 30 -55 42 -110 42 -39 0 -56 -6 -80 -26z"/>
<path d="M2205 477 c-114 -64 -112 -240 3 -305 72 -40 184 -20 227 40 25 37
-8 36 -51 -1 -30 -27 -42 -31 -91 -31 -52 0 -58 3 -99 44 -42 41 -44 46 -44
101 0 55 2 60 44 101 40 41 47 44 96 44 52 0 120 -29 120 -51 0 -5 10 -9 21
-9 20 0 20 2 7 23 -43 65 -158 87 -233 44z"/>
<path d="M130 475 c0 -11 12 -15 50 -15 l50 0 0 -150 c0 -127 2 -150 15 -150
13 0 15 23 15 150 l0 150 45 0 c33 0 45 4 45 15 0 12 -19 15 -110 15 -91 0
-110 -3 -110 -15z"/>
<path d="M1100 430 c0 -60 0 -60 -22 -46 -88 56 -204 -6 -202 -108 2 -76 54
-126 135 -126 35 0 48 6 80 39 l39 39 0 131 c0 110 -2 131 -15 131 -12 0 -15
-13 -15 -60z m-50 -65 c89 -46 54 -185 -47 -185 -90 1 -135 108 -70 167 39 36
73 41 117 18z"/>
<path d="M620 397 c-47 -17 -80 -68 -80 -125 0 -38 5 -50 39 -83 33 -33 45
-39 82 -39 26 0 57 8 77 20 26 16 32 17 32 5 0 -8 7 -15 16 -15 14 0 16 11 12
79 -5 83 -20 118 -61 146 -34 22 -77 26 -117 12z m110 -42 c32 -29 43 -70 30
-109 -14 -42 -48 -66 -95 -66 -71 0 -119 86 -85 150 26 48 110 61 150 25z"/>
<path d="M1401 396 c-13 -7 -32 -11 -43 -8 -17 4 -18 -4 -18 -112 0 -96 3
-116 15 -116 12 0 15 16 15 85 0 78 2 88 25 110 30 30 64 32 99 4 25 -19 26
-25 26 -110 0 -72 3 -89 15 -89 12 0 15 17 15 90 0 84 -2 92 -27 120 -33 36
-86 47 -122 26z"/>
<path d="M1694 396 c-68 -30 -95 -116 -59 -186 31 -60 119 -78 183 -38 l35 22
-7 -30 c-12 -46 -33 -71 -71 -84 -30 -10 -41 -9 -78 9 -49 24 -57 25 -57 11 0
-19 64 -50 103 -50 50 0 93 23 112 60 17 33 22 280 6 280 -5 0 -11 -5 -13 -10
-2 -6 -20 -2 -43 10 -45 23 -68 24 -111 6z m97 -32 c35 -18 61 -70 52 -105 -3
-13 -17 -36 -31 -51 -20 -22 -35 -28 -67 -28 -32 0 -47 6 -67 28 -14 15 -28
36 -32 46 -11 31 13 86 48 107 38 23 58 24 97 3z"/>
<path d="M2563 395 c-64 -28 -93 -123 -57 -185 47 -79 178 -80 219 0 37 71 9
157 -61 186 -41 17 -60 17 -101 -1z m103 -34 c87 -53 50 -181 -51 -181 -69 0
-116 67 -93 132 11 32 60 68 93 68 11 0 34 -9 51 -19z"/>
<path d="M2865 396 c-16 -7 -38 -11 -47 -8 -16 4 -18 -6 -18 -112 0 -96 3
-116 15 -116 12 0 15 15 15 76 0 41 5 85 12 97 28 54 76 61 119 18 27 -28 29
-34 29 -110 0 -65 3 -81 15 -81 12 0 15 17 15 89 0 85 1 91 26 110 35 28 69
26 99 -4 23 -22 25 -32 25 -110 0 -69 3 -85 15 -85 12 0 15 15 15 79 0 97 -10
125 -52 151 -40 26 -90 21 -125 -11 -21 -21 -24 -21 -36 -6 -12 16 -58 37 -80
37 -7 -1 -25 -7 -42 -14z"/>
<path d="M3341 393 c-66 -34 -76 -59 -79 -204 -3 -112 -2 -129 12 -129 13 0
16 12 16 65 l0 65 33 -20 c18 -12 50 -20 75 -20 114 0 166 163 73 229 -41 30
-90 35 -130 14z m98 -27 c87 -45 54 -186 -44 -186 -47 0 -71 13 -90 50 -21 40
-19 72 6 104 36 45 80 56 128 32z"/>
<path d="M3661 393 c-50 -26 -74 -64 -74 -115 0 -77 52 -128 131 -128 25 0 49
8 66 21 21 17 26 18 26 5 0 -9 7 -16 15 -16 24 0 21 145 -5 187 -33 56 -102
75 -159 46z m99 -28 c59 -31 69 -107 21 -156 -54 -54 -140 -32 -162 41 -10 33
-9 43 8 72 32 55 80 70 133 43z"/>
<path d="M3981 396 c-13 -7 -32 -11 -43 -8 -17 4 -18 -4 -18 -112 0 -96 3
-116 15 -116 12 0 15 16 15 85 0 78 2 88 25 110 30 30 64 32 99 4 25 -19 26
-25 26 -110 0 -72 3 -89 15 -89 12 0 15 17 15 90 0 84 -2 92 -27 120 -33 36
-86 47 -122 26z"/>
<path d="M4200 299 c0 -87 1 -92 30 -121 26 -26 36 -29 73 -26 23 3 50 8 60
12 13 6 17 3 17 -14 0 -32 -18 -60 -46 -70 -13 -5 -24 -14 -24 -20 0 -20 47
-10 71 16 23 24 24 33 27 170 3 127 2 144 -12 144 -13 0 -16 -13 -16 -79 0
-64 -4 -83 -21 -105 -25 -32 -75 -35 -110 -7 -21 17 -24 29 -28 105 -1 47 -7
86 -12 86 -5 0 -9 -41 -9 -91z"/>
</g>
</svg>
